<?xml version="1.2" encoding="utf-8"?><svg xmlns="http://www.w3.org/2000/svg" viewBox="-382.65 212.869 76.1 76.1"  preserveAspectRatio="xMidYMid meet" version="1.2" baseProfile="tiny-ps" xml:space="preserve"><title>WBIT bimi logo</title>
<g id="object-15" transform="matrix(1, 0, 0, 1, -5.684341886080802e-14, 2.842170943040401e-14)"><path style="stroke: rgb(0, 0, 0); fill: rgb(85, 154, 218); transform-box: fill-box; transform-origin: 50% 50%;" d="M -357.85 225.793 C -359.18 226.742 -360.94 228.026 -361.77 228.648 C -363.5 229.953 -363.04 229.861 -367.69 229.818 L -371.3 229.784 L -371.98 228.746 C -373.98 225.647 -377.94 227.303 -377.93 231.239 C -377.93 233.313 -375.87 235.896 -374.67 235.322 C -374.43 235.205 -373.96 235.05 -373.63 234.978 C -373.06 234.854 -372.57 234.447 -371.75 233.42 L -371.38 232.959 L -369.05 232.959 C -366.36 232.959 -366.25 233.06 -367.59 234.345 C -368.06 234.806 -368.97 235.825 -369.61 236.611 L -370.76 238.04 L -371.57 238.04 C -373.13 238.04 -373.63 238.254 -374.31 239.199 C -375.19 240.418 -375.67 241.883 -375.41 242.522 C -375.3 242.793 -375.16 243.262 -375.1 243.565 C -375.03 243.868 -374.61 244.529 -374.17 245.034 L -373.35 245.952 L -371.93 245.938 L -370.5 245.925 L -369.88 245.333 C -368.93 244.424 -368.54 243.16 -368.69 241.524 L -368.82 240.148 L -367 238.135 C -364.82 235.728 -364.96 235.655 -365.15 239.107 L -365.3 241.908 L -365.82 242.355 C -366.84 243.241 -367.35 244.42 -367.35 245.902 L -367.35 247.271 L -366.73 248.253 C -365.98 249.428 -365.17 249.894 -363.87 249.894 L -362.9 249.894 L -361.96 249.031 C -360.26 247.461 -360.17 244.676 -361.77 242.905 L -362.48 242.116 L -362.48 240.853 C -362.48 240.158 -362.42 238.15 -362.35 236.391 L -362.21 233.192 L -360.35 231.806 C -358.04 230.084 -357.95 230.086 -358.6 231.848 C -358.89 232.634 -359.32 233.849 -359.56 234.547 C -359.8 235.246 -360.25 236.532 -360.57 237.405 C -360.89 238.278 -361.32 239.533 -361.53 240.194 L -361.91 241.395 L -361.5 242.099 C -360.86 243.188 -360.14 243.146 -357.55 241.873 C -356.36 241.288 -355.14 240.751 -354.84 240.68 L -354.29 240.551 L -354.15 242.312 C -353.98 244.554 -353.98 247.581 -354.15 250.99 L -354.29 253.673 L -355.31 253.271 C -355.87 253.05 -357.11 252.48 -358.05 252.005 C -361.02 250.509 -361.26 250.689 -362.61 255.504 C -363.03 257.017 -363.45 258.398 -363.53 258.572 C -363.69 258.888 -367.86 261.073 -368.35 261.1 C -368.49 261.107 -369.14 261.365 -369.79 261.672 L -370.97 262.231 L -371.56 261.672 L -372.14 261.114 L -373.48 261.114 L -374.82 261.114 L -375.51 261.85 C -376.98 263.412 -377.21 265.617 -376.09 267.433 C -374.41 270.159 -371.05 269.357 -370.1 266.003 C -369.87 265.188 -369.39 264.89 -366.47 263.747 C -364.85 263.109 -364.83 263.124 -365.51 264.87 C -365.82 265.656 -366.34 267.008 -366.67 267.872 L -367.28 269.445 L -368.1 269.729 C -371.61 270.945 -371.56 276.452 -368.02 277.403 C -365.2 278.163 -362.89 274.395 -364.32 271.384 L -364.68 270.633 L -364.29 269.525 C -364.07 268.915 -363.61 267.658 -363.26 266.731 L -362.62 265.045 L -362.27 265.884 C -362.08 266.346 -361.71 267.559 -361.46 268.58 L -361 270.437 L -361.32 271.057 C -362.69 273.712 -361.77 276.767 -359.4 277.392 C -355.16 278.514 -353.61 271.392 -357.72 269.674 L -358.36 269.405 L -359.39 265.841 C -361.02 260.195 -360.99 260.517 -359.99 257.255 C -359.31 255.076 -359.5 255.12 -356.67 256.465 C -353.97 257.747 -354.25 257.031 -354.15 262.913 C -354.05 268.956 -354.49 268.121 -349.56 271.698 C -348.99 272.105 -347.98 272.893 -347.31 273.448 C -346.63 274.003 -345.73 274.702 -345.3 275 L -344.52 275.542 L -344.04 275.28 C -343.77 275.137 -342.43 274.153 -341.05 273.094 C -339.68 272.035 -337.77 270.564 -336.81 269.824 C -334.57 268.092 -334.76 268.741 -334.76 262.884 L -334.75 257.775 L -334.24 257.442 C -333.96 257.259 -332.79 256.693 -331.63 256.185 L -329.53 255.26 L -328.74 257.743 L -327.95 260.226 L -328.58 262.31 C -328.94 263.457 -329.43 265.25 -329.68 266.296 C -330.3 268.895 -330.59 269.538 -331.24 269.701 C -332.05 269.903 -333.19 271.306 -333.59 272.58 L -333.94 273.709 L -333.49 274.913 C -332.61 277.257 -330.91 278.073 -328.93 277.105 C -327.07 276.196 -326.46 274.086 -327.34 271.663 L -327.82 270.353 L -327.56 269.173 C -327.22 267.649 -326.54 265.104 -326.44 265.008 C -326.33 264.902 -324.63 269.36 -324.46 270.159 C -324.38 270.573 -324.47 271.182 -324.7 271.79 C -326.35 276.1 -321.57 279.69 -319.05 276.037 L -318.47 275.191 L -318.46 273.645 C -318.45 271.458 -319.35 270.047 -320.99 269.687 C -321.61 269.552 -322.26 268.716 -322.26 268.069 C -322.26 267.924 -322.65 266.814 -323.12 265.603 C -324.24 262.76 -324.34 262.8 -320.56 264.568 L -318.96 265.316 L -318.6 266.482 C -317.54 269.843 -313.59 269.944 -312.43 266.641 C -311.12 262.929 -314.45 259.605 -317.42 261.663 L -318.22 262.212 L -319.23 261.687 C -319.79 261.398 -321.34 260.7 -322.66 260.136 C -324.26 259.453 -325.13 258.967 -325.24 258.683 C -325.47 258.108 -326.63 254.257 -326.93 253.07 C -327.5 250.78 -328.06 250.685 -331.43 252.301 C -332.73 252.925 -334.01 253.503 -334.28 253.585 L -334.75 253.733 L -334.75 247.036 L -334.75 240.34 L -334.28 240.488 C -334.01 240.57 -332.78 241.148 -331.53 241.772 C -328.41 243.332 -327.48 243.293 -327.21 241.592 C -327.07 240.731 -327.15 240.433 -328.82 235.817 C -331.02 229.751 -331.01 229.694 -328.16 232.031 C -326.79 233.158 -326.81 233.079 -326.48 237.912 L -326.22 241.809 L -327 242.718 C -329.38 245.509 -327.99 249.891 -324.71 249.893 L -323.67 249.894 L -322.8 248.987 C -320.97 247.079 -321.03 244.849 -322.96 242.538 L -323.68 241.672 L -323.83 238.883 C -323.92 237.349 -323.95 236.058 -323.9 236.013 C -323.86 235.968 -323 236.884 -322 238.048 L -320.18 240.164 L -320.29 241.272 C -320.68 245.098 -317.29 247.446 -314.81 245.07 C -312.4 242.765 -313.92 238.04 -317.07 238.04 L -317.91 238.04 L -319.18 236.717 C -320.51 235.323 -322.26 233.252 -322.26 233.068 C -322.26 233.008 -321.17 232.959 -319.84 232.959 L -317.42 232.959 L -316.78 233.881 C -315.33 235.992 -312.51 235.594 -311.35 233.114 C -310.04 230.301 -311.64 227.244 -314.41 227.244 L -315.54 227.244 L -316.31 228.059 C -316.73 228.507 -317.22 229.075 -317.39 229.322 L -317.71 229.771 L -321.56 229.811 L -325.41 229.851 L -325.9 229.503 C -326.17 229.311 -326.92 228.769 -327.56 228.299 C -328.19 227.828 -329.21 227.114 -329.82 226.711 C -330.42 226.308 -330.97 225.881 -331.05 225.762 C -331.31 225.333 -333.5 224.069 -333.98 224.069 C -335.2 224.069 -335.69 225.524 -335.05 227.27 C -334.41 228.999 -331.97 236.024 -331.69 236.929 C -331.34 238.038 -331.44 238.051 -333.27 237.138 C -334.18 236.682 -334.66 236.31 -334.7 236.029 C -334.88 234.837 -335.01 234.672 -336.39 233.858 C -337.18 233.393 -339.26 232.267 -341.03 231.357 L -344.24 229.701 L -345.16 230.099 C -345.66 230.317 -347.86 231.44 -350.05 232.594 C -354.08 234.725 -354.08 234.729 -354.27 236.029 C -354.34 236.483 -357.05 238.045 -357.31 237.781 C -357.39 237.703 -357.34 237.324 -357.2 236.939 C -353.66 227.29 -353.14 225.351 -353.88 224.61 C -354.72 223.768 -355.22 223.918 -357.85 225.793 Z" id="object-1" transform="matrix(-1, 0, 0, -1, -0.000028, 0.000002)"/><path style="stroke: rgb(0, 0, 0); stroke-width: 0.893; fill: rgb(255, 255, 255); transform-box: fill-box; transform-origin: 50% 50%;" d="M -313.21 269.736 C -312.84 270.392 -313.06 271.301 -313.68 271.686 C -314.28 272.068 -315.19 271.434 -315.28 270.571 C -315.41 269.147 -313.88 268.529 -313.21 269.736 Z" id="object-2" transform="matrix(-1, 0, 0, -1, -0.00003, 0.000002)"/><path style="stroke: rgb(0, 0, 0); stroke-width: 0.893; fill: rgb(255, 255, 255); transform-box: fill-box; transform-origin: 50% 50%;" d="M -373.68 269.872 L -373.42 270.709 L -373.78 271.248 C -374.36 272.137 -375.42 271.833 -375.68 270.701 C -376.03 269.208 -374.11 268.417 -373.68 269.872 Z" id="object-3" transform="matrix(-1, 0, 0, -1, -0.000001, 0.000032)"/><path style="stroke: rgb(0, 0, 0); stroke-width: 0.893; fill: rgb(255, 255, 255); transform-box: fill-box; transform-origin: 50% 50%;" d="M -316.17 258.563 C -315.39 259.34 -315.84 261.007 -316.83 261.007 C -317.87 261.007 -318.39 258.995 -317.5 258.373 C -316.88 257.938 -316.78 257.953 -316.17 258.563 Z" id="object-4" transform="matrix(-1, 0, 0, -1, -0.000006, -0.000034)"/><path style="stroke: rgb(0, 0, 0); stroke-width: 0.893; fill: rgb(255, 255, 255); transform-box: fill-box; transform-origin: 50% 50%;" d="M -371.21 258.47 C -370.36 259.321 -370.86 261.01 -371.96 261.01 C -372.92 261.01 -373.29 258.975 -372.44 258.376 C -371.83 257.952 -371.72 257.961 -371.21 258.47 Z" id="object-5" transform="matrix(-1, 0, 0, -1, -0.000028, 0.000029)"/><path style="stroke: rgb(0, 0, 0); stroke-width: 0.893; fill: rgb(255, 255, 255); transform-box: fill-box; transform-origin: 50% 50%;" d="M -323.94 254.656 C -323.14 255.461 -323.63 257.196 -324.67 257.196 C -325.29 257.196 -325.62 256.796 -325.77 255.872 L -325.89 255.145 L -325.31 254.688 C -324.6 254.127 -324.47 254.124 -323.94 254.656 Z" id="object-6" transform="matrix(-1, 0, 0, -1, -0.000006, -0.000002)"/><path style="stroke: rgb(0, 0, 0); stroke-width: 0.893; fill: rgb(255, 255, 255); transform-box: fill-box; transform-origin: 50% 50%;" d="M -363.42 254.778 L -362.82 255.401 L -363.24 256.207 C -363.71 257.115 -364.32 257.326 -364.83 256.758 C -366.11 255.338 -364.74 253.406 -363.42 254.778 Z" id="object-7" transform="matrix(-1, 0, 0, -1, -0.000002, -0.000013)"/><path style="stroke: rgb(0, 0, 0); stroke-width: 0.893; fill: rgb(255, 255, 255); transform-box: fill-box; transform-origin: 50% 50%;" d="M -314.52 235.483 C -314.19 235.812 -314.19 237.398 -314.52 237.727 C -315.2 238.413 -316.38 237.693 -316.38 236.587 C -316.38 235.461 -315.23 234.776 -314.52 235.483 Z" id="object-8" transform="matrix(-1, 0, 0, -1, -0.000029, 0.000012)"/><path style="stroke: rgb(0, 0, 0); stroke-width: 0.893; fill: rgb(255, 255, 255); transform-box: fill-box; transform-origin: 50% 50%;" d="M -372.65 235.557 C -372.17 235.99 -372.14 237.171 -372.59 237.626 C -373.62 238.654 -374.9 237.008 -374.16 235.617 C -373.89 235.115 -373.17 235.086 -372.65 235.557 Z" id="object-9" transform="matrix(-1, 0, 0, -1, 0, 0.000001)"/><path style="stroke: rgb(0, 0, 0); stroke-width: 0.893; fill: rgb(255, 255, 255); transform-box: fill-box; transform-origin: 50% 50%;" d="M -320.92 227.153 C -320.03 227.854 -320.41 229.466 -321.47 229.466 C -322.58 229.466 -323.1 227.965 -322.27 227.137 C -321.74 226.608 -321.61 226.609 -320.92 227.153 Z" id="object-10" transform="matrix(-1, 0, 0, -1, 0.000038, -0.000016)"/><path style="stroke: rgb(0, 0, 0); stroke-width: 0.893; fill: rgb(255, 255, 255); transform-box: fill-box; transform-origin: 50% 50%;" d="M -329.6 227.068 C -328.86 227.772 -329.04 228.865 -329.99 229.373 C -330.99 229.909 -331.86 228.14 -331.11 227.078 C -330.7 226.485 -330.23 226.481 -329.6 227.068 Z" id="object-11" transform="matrix(-1, 0, 0, -1, 0.000031, 0.000002)"/><path style="stroke: rgb(0, 0, 0); stroke-width: 0.893; fill: rgb(255, 255, 255); transform-box: fill-box; transform-origin: 50% 50%;" d="M -357.86 227.141 C -357.1 227.906 -357.49 229.469 -358.44 229.469 C -359.5 229.469 -359.98 227.671 -359.09 227.047 C -358.48 226.623 -358.37 226.631 -357.86 227.141 Z" id="object-12" transform="matrix(-1, 0, 0, -1, -0.000003, -0.000001)"/><path style="stroke: rgb(0, 0, 0); stroke-width: 0.893; fill: rgb(255, 255, 255); transform-box: fill-box; transform-origin: 50% 50%;" d="M -366.42 227.141 C -365.65 227.917 -366 229.469 -366.96 229.469 C -368.14 229.469 -368.66 228.25 -367.89 227.275 C -367.36 226.608 -366.99 226.573 -366.42 227.141 Z" id="object-13" transform="matrix(-1, 0, 0, -1, 0.000002, -0.000001)"/><path style="stroke: rgb(0, 0, 0); fill: rgb(255, 255, 255); stroke-linejoin: round; stroke-dashoffset: -22.21px; transform-box: fill-box; transform-origin: 50% 50%;" d="M -341.54 238.349 L -343.47 238.349 L -343.47 233.053 L -345.11 233.053 L -345.11 238.349 L -347.05 238.349 L -347.05 239.597 L -341.54 239.597 L -341.54 238.349 Z M -342.94 246.894 L -343.88 246.894 L -343.88 242.635 L -342.94 242.635 L -342.94 241.493 L -346.46 241.493 L -346.46 242.635 L -345.52 242.635 L -345.52 246.894 L -346.46 246.894 L -346.46 248.036 L -342.94 248.036 L -342.94 246.894 Z M -342.3 249.933 L -344.92 249.933 C -345.45 249.902 -345.98 250.001 -346.47 250.221 C -347.24 250.581 -347.67 251.417 -347.51 252.253 C -347.45 252.715 -347.16 253.116 -346.75 253.325 C -346.57 253.415 -346.39 253.48 -346.2 253.519 L -346.2 253.554 L -346.4 253.654 C -347.07 254.093 -347.3 254.973 -346.93 255.685 C -346.65 256.104 -346.2 256.375 -345.71 256.421 C -345.34 256.464 -344.98 256.482 -344.61 256.476 L -342.3 256.476 L -342.3 249.933 Z M -344.45 252.771 C -344.75 252.791 -345.06 252.768 -345.35 252.701 C -345.67 252.608 -345.88 252.298 -345.85 251.967 C -345.86 251.564 -345.56 251.216 -345.16 251.175 C -344.75 251.123 -344.35 251.109 -343.94 251.132 L -343.94 252.771 L -344.45 252.771 Z M -344.26 255.276 C -344.54 255.301 -344.82 255.273 -345.1 255.193 C -345.31 255.088 -345.44 254.865 -345.43 254.626 C -345.45 254.434 -345.38 254.243 -345.25 254.103 C -345.04 253.938 -344.77 253.863 -344.5 253.895 L -343.94 253.892 L -343.94 255.276 L -344.26 255.276 Z M -346.2 260.526 L -345.16 264.916 L -343.53 264.916 L -342.43 260.526 L -341.53 264.916 L -339.82 264.916 L -341.48 258.373 L -343.28 258.373 L -344.3 262.42 L -345.35 258.373 L -347.15 258.373 L -348.81 264.916 L -347.15 264.916 L -346.2 260.526 Z" id="object-14" transform="matrix(-1, 0, 0, -1, 0.000002, -0.000014)"/></g></svg>
